<?xml version="1.0" encoding="UTF-8" standalone="no"?>
<!-- Generator: Adobe Illustrator 19.2.0, SVG Export Plug-In . SVG Version: 6.00 Build 0)  -->

<svg
   xmlns:dc="http://purl.org/dc/elements/1.1/"
   xmlns:cc="http://creativecommons.org/ns#"
   xmlns:rdf="http://www.w3.org/1999/02/22-rdf-syntax-ns#"
   xmlns:svg="http://www.w3.org/2000/svg"
   xmlns="http://www.w3.org/2000/svg"
   xmlns:sodipodi="http://sodipodi.sourceforge.net/DTD/sodipodi-0.dtd"
   xmlns:inkscape="http://www.inkscape.org/namespaces/inkscape"
   version="1.1"
   id="Layer_1"
   x="0px"
   y="0px"
   viewBox="0 0 25 25"
   xml:space="preserve"
   sodipodi:docname="gscholar-button_active.svg"
   inkscape:version="0.92.2 (5c3e80d, 2017-08-06)"
   width="25"
   height="25"><metadata
     id="metadata13"><rdf:RDF><cc:Work
         rdf:about=""><dc:format>image/svg+xml</dc:format><dc:type
           rdf:resource="http://purl.org/dc/dcmitype/StillImage" /></cc:Work></rdf:RDF></metadata><defs
     id="defs11" /><sodipodi:namedview
     pagecolor="#ffffff"
     bordercolor="#666666"
     borderopacity="1"
     objecttolerance="10"
     gridtolerance="10"
     guidetolerance="10"
     inkscape:pageopacity="0"
     inkscape:pageshadow="2"
     inkscape:window-width="1920"
     inkscape:window-height="1013"
     id="namedview9"
     showgrid="false"
     inkscape:zoom="16.68772"
     inkscape:cx="25.915403"
     inkscape:cy="15.397616"
     inkscape:window-x="-9"
     inkscape:window-y="-9"
     inkscape:window-maximized="1"
     inkscape:current-layer="Layer_1" /><style
     type="text/css"
     id="style2">
	.st0{fill:#53BAB6;}
	.st1{fill:#F4F4F4;}
</style><path
     style="opacity:0.9;fill:#a9dde8;fill-opacity:1;stroke-width:1.04166675"
     d="M 5.2089844 0 C 2.332947 0 0 2.3329474 0 5.2089844 L 0 19.792969 C 0 22.669007 2.332947 25 5.2089844 25 L 19.791016 25 C 22.668097 25 25 22.669007 25 19.792969 L 25 5.2089844 C 25 2.3329474 22.668097 5.9211895e-016 19.791016 0 L 5.2089844 0 z M 10.585938 3.5351562 C 13.865975 3.6114342 17.145636 3.6873921 20.501953 3.7636719 C 20.425673 3.8399499 20.349826 3.9178607 20.197266 3.9941406 C 19.587026 4.3755398 19.433486 4.9072305 19.509766 5.59375 C 19.509766 5.7463097 19.585824 5.8240027 19.662109 5.9765625 C 19.738389 6.1291222 19.814453 6.2811421 19.814453 6.3574219 C 19.814453 8.3407005 19.814553 10.249145 19.738281 12.232422 C 19.738281 12.690102 19.510306 12.841797 19.128906 12.841797 C 18.671227 12.841797 18.443359 12.612085 18.443359 12.078125 L 18.443359 9.3320312 C 18.443359 8.4166722 18.519417 7.5014045 18.595703 6.5097656 C 18.595703 6.2809253 18.824219 6.0530592 18.824219 5.8242188 C 18.900499 5.5190994 18.900391 5.2894944 18.900391 4.984375 C 18.900391 4.984375 18.824219 4.9844812 18.824219 4.9082031 C 17.90886 5.5947226 17.069548 6.2822305 16.230469 6.96875 C 16.383028 7.5027089 16.535156 7.9601808 16.535156 8.4941406 C 16.687716 9.63834 16.153532 10.553607 15.314453 11.316406 C 15.009334 11.621526 14.705511 11.849178 14.400391 12.154297 C 14.018992 12.535697 14.019091 13.069772 14.324219 13.451172 C 14.781898 13.908851 15.239478 14.366539 15.773438 14.824219 C 16.765076 15.663297 17.146592 16.730693 17.070312 17.951172 C 16.994032 19.324211 16.154073 20.241431 14.933594 20.775391 C 14.094516 21.23307 13.10286 21.384873 12.1875 21.308594 C 10.814462 21.308594 9.4411821 21.079205 8.2207031 20.316406 C 7.2290567 19.629883 6.7710521 18.714296 7.0761719 17.722656 C 7.2287317 17.112417 7.5346162 16.654838 7.9160156 16.273438 C 8.9839351 15.281799 10.204979 14.824327 11.654297 14.748047 L 12.875 14.748047 C 12.188481 13.985247 12.034509 13.300125 12.492188 12.384766 C 11.347988 12.384766 10.356658 12.231549 9.5175781 11.46875 C 8.6784907 10.70595 8.296875 9.790683 8.296875 8.6464844 L 6.390625 8.6464844 C 5.7803856 8.6464844 5.1689414 8.6465878 4.4824219 8.5703125 C 4.5587018 8.4940338 4.6365027 8.4180767 4.7890625 8.3417969 C 6.6197809 6.8161982 8.4504231 5.2893785 10.357422 3.6875 C 10.433701 3.6112217 10.509657 3.5351562 10.585938 3.5351562 z M 12.044922 5.8945312 C 11.461648 5.8826151 10.919662 6.137685 10.585938 6.6621094 C 10.280818 7.1197893 10.128906 7.7314494 10.128906 8.4179688 L 10.128906 8.7226562 C 10.281466 9.9431348 10.738722 10.934574 11.806641 11.621094 C 12.722 12.231334 13.71398 12.079314 14.324219 11.240234 C 14.629339 10.858835 14.70497 10.401147 14.78125 9.8671875 C 15.01009 8.4941493 14.247715 6.8915976 13.103516 6.2050781 C 12.760256 6.0048431 12.394885 5.9016826 12.044922 5.8945312 z M 12.34375 15.285156 C 11.587655 15.308996 10.84403 15.511179 10.128906 15.892578 C 8.6795876 16.731657 8.4494428 18.334209 9.6699219 19.554688 C 10.432721 20.317487 11.424377 20.546875 12.416016 20.546875 C 13.255096 20.470595 14.018558 20.393012 14.705078 20.087891 C 15.925556 19.477651 16.459084 17.341248 15.009766 16.349609 C 14.704646 16.120769 14.324651 15.816731 14.019531 15.587891 C 13.943251 15.511611 13.789171 15.435547 13.712891 15.435547 C 13.255211 15.321128 12.797407 15.270853 12.34375 15.285156 z "
     id="path822" /></svg>