<?xml version="1.0" encoding="UTF-8" standalone="no"?>
<!-- Generator: Adobe Illustrator 19.1.0, SVG Export Plug-In . SVG Version: 6.00 Build 0)  -->

<svg
   xmlns:dc="http://purl.org/dc/elements/1.1/"
   xmlns:cc="http://creativecommons.org/ns#"
   xmlns:rdf="http://www.w3.org/1999/02/22-rdf-syntax-ns#"
   xmlns:svg="http://www.w3.org/2000/svg"
   xmlns="http://www.w3.org/2000/svg"
   xmlns:sodipodi="http://sodipodi.sourceforge.net/DTD/sodipodi-0.dtd"
   xmlns:inkscape="http://www.inkscape.org/namespaces/inkscape"
   version="1.1"
   id="Layer_1"
   x="0px"
   y="0px"
   viewBox="0 0 25 25"
   xml:space="preserve"
   sodipodi:docname="ORCID_iD.svg"
   inkscape:version="0.92.2 (5c3e80d, 2017-08-06)"
   width="25"
   height="25"><metadata
     id="metadata19"><rdf:RDF><cc:Work
         rdf:about=""><dc:format>image/svg+xml</dc:format><dc:type
           rdf:resource="http://purl.org/dc/dcmitype/StillImage" /></cc:Work></rdf:RDF></metadata><defs
     id="defs17" /><sodipodi:namedview
     pagecolor="#ffffff"
     bordercolor="#666666"
     borderopacity="1"
     objecttolerance="10"
     gridtolerance="10"
     guidetolerance="10"
     inkscape:pageopacity="0"
     inkscape:pageshadow="2"
     inkscape:window-width="1920"
     inkscape:window-height="1013"
     id="namedview15"
     showgrid="false"
     inkscape:zoom="2.6074563"
     inkscape:cx="96.099302"
     inkscape:cy="123.6568"
     inkscape:window-x="-9"
     inkscape:window-y="-9"
     inkscape:window-maximized="1"
     inkscape:current-layer="Layer_1" /><style
     type="text/css"
     id="style2">
	.st0{fill:#A6CE39;}
	.st1{fill:#FFFFFF;}
</style><path
     style="opacity:0.9;fill:#a9dde8;fill-opacity:1;stroke-width:1.04166675"
     d="M 5.2083968,0 C 2.3323559,0 0,2.33216 0,5.20821 V 19.7916 C 0,22.66764 2.3323559,25 5.2083968,25 H 19.791794 C 22.668877,25 25,22.66764 25,19.7916 V 5.20821 C 25,2.33216 22.668877,0 19.791794,0 Z m 2.2493363,4.58317 c 0.546875,0 0.98629,0.44937 0.98629,0.98648 0,0.53711 -0.439415,0.98629 -0.98629,0.98629 -0.546875,0 -0.98629,-0.44918 -0.98629,-0.98629 0,-0.54688 0.439415,-0.98648 0.98629,-0.98648 z m -0.7518768,3.1641 h 1.5039448 v 4.7266 5.73234 H 6.7058563 Z m 3.7109377,0 h 4.062461 c 3.867188,0 5.566407,2.76363 5.566407,5.23434 0,2.68554 -2.099686,5.23452 -5.546951,5.23452 h -4.081917 z m 1.503944,1.35746 v 7.75394 h 2.392578 c 3.408203,0 4.189301,-2.588 4.189301,-3.87706 0,-2.09961 -1.337815,-3.87688 -4.267502,-3.87688 z"
     id="path2"
     inkscape:connector-curvature="0" /></svg>