<?xml version="1.0" encoding="UTF-8" standalone="no"?>
<!-- Created with Inkscape (http://www.inkscape.org/) -->

<svg
   xmlns:dc="http://purl.org/dc/elements/1.1/"
   xmlns:cc="http://creativecommons.org/ns#"
   xmlns:rdf="http://www.w3.org/1999/02/22-rdf-syntax-ns#"
   xmlns:svg="http://www.w3.org/2000/svg"
   xmlns="http://www.w3.org/2000/svg"
   xmlns:sodipodi="http://sodipodi.sourceforge.net/DTD/sodipodi-0.dtd"
   xmlns:inkscape="http://www.inkscape.org/namespaces/inkscape"
   width="35.078739"
   height="62.618641"
   id="svg3818"
   version="1.1"
   inkscape:version="0.48.5 r10040"
   sodipodi:docname="New document 3">
  <defs
     id="defs3" />
  <sodipodi:namedview
     inkscape:document-units="mm"
     id="base"
     pagecolor="#ffffff"
     bordercolor="#666666"
     borderopacity="1.0"
     inkscape:pageopacity="0.0"
     inkscape:pageshadow="2"
     inkscape:zoom="7.9195959"
     inkscape:cx="-4.181005"
     inkscape:cy="20.630909"
     inkscape:current-layer="layer1"
     showgrid="false"
     units="mm"
     fit-margin-top="0"
     fit-margin-left="0"
     fit-margin-right="0"
     fit-margin-bottom="0"
     inkscape:window-width="1366"
     inkscape:window-height="705"
     inkscape:window-x="-8"
     inkscape:window-y="-8"
     inkscape:window-maximized="1" />
  <metadata
     id="metadata4">
    <rdf:RDF>
      <cc:Work
         rdf:about="">
        <dc:format>image/svg+xml</dc:format>
        <dc:type
           rdf:resource="http://purl.org/dc/dcmitype/StillImage" />
        <dc:title></dc:title>
      </cc:Work>
    </rdf:RDF>
  </metadata>
  <g
     inkscape:label="Layer 1"
     inkscape:groupmode="layer"
     id="layer1"
     transform="translate(-92.053188,-891.86469)">
    <g
       transform="matrix(0.08084149,-0.08084149,0.08084149,0.08084149,68.184496,920.44866)"
       id="g3799">
      <path
         sodipodi:nodetypes="sssssssss"
         inkscape:connector-curvature="0"
         id="path3794"
         d="M 341.047,373.33913 C 297.70628,425.67683 253.72464,469.29654 212.59571,491.43531 151.1302,524.52078 95.701345,515.31955 55.616208,461.24749 23.390569,417.77735 -14.235672,374.30897 19.911683,306.83553 38.028735,271.03716 90.775404,227.31194 143.52456,175.8167 203.36376,117.39995 241.09512,73.449768 278.00453,53.984773 341.07395,20.723704 390.1322,48.430294 428.95535,87.908345 466.094,125.67347 487.4752,171.98601 462.60751,226.82725 443.45091,269.07368 389.12717,315.27813 341.047,373.33913 z"
         style="color:#000000;fill:#888a85;fill-opacity:1;fill-rule:nonzero;stroke:none;stroke-width:0.1;marker:none;visibility:visible;display:inline;overflow:visible;enable-background:accumulate" />
      <path
         transform="matrix(0.70710681,0.70710681,-0.70710681,0.70710681,256.128,-106.09169)"
         d="m 276.65296,114.73524 c 0,36.4495 -11.59594,65.99765 -25.90024,65.99765 -14.30431,0 -25.90025,-29.54815 -25.90025,-65.99765 0,-36.449503 11.59594,-65.997661 25.90025,-65.997661 14.3043,0 25.90024,29.548158 25.90024,65.997661 z"
         sodipodi:ry="65.997658"
         sodipodi:rx="25.900242"
         sodipodi:cy="114.73524"
         sodipodi:cx="250.75272"
         id="path3022"
         style="color:#000000;fill:#cc0000;fill-opacity:1;fill-rule:nonzero;stroke:none;stroke-width:0.1;marker:none;visibility:visible;display:inline;overflow:visible;enable-background:accumulate"
         sodipodi:type="arc" />
      <path
         style="fill:#ffffff"
         sodipodi:nodetypes="cccccccssccsccccccccccccscccccccccscccscccccccccccc"
         d="m 405.90472,57.573144 c -1.468,1.22 -8.87081,12.527669 -9.28881,14.430669 1.06872,-0.267178 24.47115,18.150672 25.63809,20.525187 51.806,53.239 51.371,138.701 -1.314,191.394 l -28.237,28.245 -94.515,-94.524 10.121,-10.121 c 4.352,2.355 8.414,3.012 11.469,3.012 10.812,0 18.475,-7.347 19.311,-8.183 l 59.733,-59.733 c 7.569,-7.578 13.815,-23.851 0,-37.675 -6.767,-6.767 -13.722,-8.183 -18.364,-8.183 -10.803,0 -18.466,7.347 -19.311,8.183 l -59.725,59.733 c -6.323,6.332 -11.563,18.731 -5.103,30.703 l -10.197,10.197 -86.153,-86.144 28.228,-28.245 C 273.364,46.03 342.663,38.094 396.713,71.886 c 3.994,2.509 15.03259,4.070051 17.52459,0.07605 C 416.73759,67.968051 409.761,59.922 405.767,57.422 344.941,19.389 266.955,28.306 216.131,79.122 L 45.6,249.739 c -60.8,60.8 -60.8,156.066 0,216.866 30.396,30.404 69.419,45.602 108.433,45.602 39.014,0 78.037,-15.206 108.433,-45.602 L 398.342,330.669 c 0.154,-0.137 0.333,-0.179 0.478,-0.316 0.145,-0.145 0.188,-0.333 0.316,-0.478 l 33.869,-33.886 c 57.737,-57.737 59.716,-150.434 5.948,-210.577 0.29345,-0.209025 -32.59451,-28.655633 -33.04828,-27.838856 z M 313.487,176.753 373.22,117.02 c 0.026,-0.034 3.49,-3.192 7.236,-3.192 0.768,0 3.098,0 6.289,3.192 5.751,5.743 2.432,10.982 0,13.525 l -59.725,59.733 c -0.034,0.034 -3.49,3.192 -7.245,3.192 -0.768,0 -3.098,0 -6.289,-3.192 -5.742,-5.743 -2.423,-10.982 0.001,-13.525 z M 250.4,454.539 c -25.933,25.933 -60.006,40.294 -95.949,40.439 -36.48,0.145 -70.554,-14.216 -96.785,-40.439 -54.025,-54.042 -54.025,-138.701 0,-192.734 l 130.244,-130.304 92.169,92.177 0.008,0.009 0.009,0 100.548,100.548 z"
         id="path7"
         inkscape:connector-curvature="0" />
    </g>
  </g>
</svg>
